<?xml version="1.0" encoding="UTF-8" standalone="no"?>
<!-- Created with Inkscape (http://www.inkscape.org/) -->

<svg
   xmlns:dc="http://purl.org/dc/elements/1.1/"
   xmlns:cc="http://creativecommons.org/ns#"
   xmlns:rdf="http://www.w3.org/1999/02/22-rdf-syntax-ns#"
   xmlns:svg="http://www.w3.org/2000/svg"
   xmlns="http://www.w3.org/2000/svg"
   xmlns:sodipodi="http://sodipodi.sourceforge.net/DTD/sodipodi-0.dtd"
   xmlns:inkscape="http://www.inkscape.org/namespaces/inkscape"
   width="256"
   height="256"
   viewBox="0 0 67.733332 67.733335"
   version="1.1"
   id="svg8"
   inkscape:version="0.92.5 (0.92.5+68)"
   sodipodi:docname="drawing (copy).svg">
  <defs
     id="defs2" />
  <sodipodi:namedview
     id="base"
     pagecolor="#ffffff"
     bordercolor="#666666"
     borderopacity="1.0"
     inkscape:pageopacity="0.0"
     inkscape:pageshadow="2"
     inkscape:zoom="0.35"
     inkscape:cx="400"
     inkscape:cy="560"
     inkscape:document-units="mm"
     inkscape:current-layer="layer1"
     showgrid="false"
     units="px"
     inkscape:object-nodes="false" />
  <metadata
     id="metadata5">
    <rdf:RDF>
      <cc:Work
         rdf:about="">
        <dc:format>image/svg+xml</dc:format>
        <dc:type
           rdf:resource="http://purl.org/dc/dcmitype/StillImage" />
        <dc:title />
      </cc:Work>
    </rdf:RDF>
  </metadata>
  <g
     inkscape:label="Layer 1"
     inkscape:groupmode="layer"
     id="layer1"
     transform="translate(0,-229.26665)">
    <path
       style="fill:#5e5e5e;stroke:none;stroke-width:0.67642337;stroke-opacity:1"
       d="m 43.055829,234.36756 c -0.139583,0 -2.518432,1.03254 -5.286667,2.29408 -2.768244,1.26151 -6.759249,2.83767 -8.867914,3.50237 -3.288255,1.03655 -4.074843,1.07811 -5.528893,0.29996 -1.490862,-0.79788 -1.871534,-0.75111 -3.157351,0.38731 -0.804203,0.71198 -2.800422,3.35001 -4.436075,5.86124 -1.63565,2.51119 -3.103502,4.56563 -3.261567,4.56563 -0.158006,0 -1.674934,-2.40604 -3.3714125,-5.34725 -2.9464904,-5.10837 -4.4561559,-6.61117 -5.8063193,-5.77673 -1.4112347,0.87222 0.1852033,8.86682 4.2304638,21.17907 1.5746585,4.79272 1.8790005,6.46146 1.250544,6.84986 -1.1110525,0.68668 -0.1823141,3.59936 1.0026985,3.14466 1.3803815,-0.52974 3.8748465,5.84826 3.3601415,8.5919 -0.714052,3.80629 -1.197377,4.18073 -4.2276455,3.27283 -1.4675346,-0.43969 -2.9890085,-0.79851 -3.3812682,-0.79851 -2.0747916,2.72813 1.5293846,2.83487 1.5293846,2.83487 0.1760194,-0.17605 6.5803321,1.29555 14.2320371,3.27141 5.658464,1.4612 9.386898,2.52356 11.495757,3.27567 1.893299,-0.18013 4.097505,0.94907 4.00653,-1.33786 -0.174193,-0.28184 -2.062555,-0.87133 -4.195255,-1.30971 -2.132698,-0.43836 -4.077003,-0.9163 -4.321997,-1.06183 -0.577299,-0.34316 0.994021,-6.06623 2.426463,-8.83553 0.61123,-1.18172 2.393932,-2.90166 3.96148,-3.82065 2.382025,-1.39646 3.406389,-2.75289 6.233031,-8.26236 2.085035,-4.06396 4.87312,-8.20969 7.270924,-10.80992 2.139158,-2.31976 3.889657,-4.68889 3.889657,-5.26554 0,-0.57668 -0.743468,-1.6344 -1.651904,-2.349 l -1.651909,-1.29843 7.85818,-5.02475 c 4.321921,-2.76322 7.997407,-5.44224 8.168004,-5.95416 0.574849,-1.72456 -2.077798,-0.37466 -14.243306,7.24696 -6.587742,4.12723 -12.144467,7.23394 -12.347762,6.90479 -0.203435,-0.32917 -0.791333,-1.79331 -1.306882,-3.25452 l -0.93791,-2.65743 3.660109,-3.61362 c 2.305775,-2.27713 3.660108,-4.18652 3.660108,-5.15994 0,-0.84979 -0.113967,-1.54487 -0.253496,-1.54487 z m -2.827813,3.00807 c 0.820963,0.1082 -0.344016,1.53733 -3.513651,4.27132 -2.139218,1.84514 -4.802889,3.82138 -5.918989,4.391 -1.935423,0.9878 -2.085398,0.96022 -3.248894,-0.58866 -1.246572,-1.65951 -1.051749,-2.96443 0.443612,-2.96443 0.459654,0 3.485803,-1.33054 6.724516,-2.95598 3.034811,-1.5231 4.874869,-2.23739 5.513406,-2.15325 z m -18.544188,5.25571 c 0.54693,-0.0273 1.295907,0.4802 1.849073,1.28574 0.608396,0.88596 2.925413,3.5197 5.150065,5.85279 2.892068,3.03302 3.837923,4.44975 3.316491,4.97122 -1.00535,1.00532 -3.055056,0.23382 -6.634393,-2.49829 -1.669939,-1.27464 -3.161923,-2.318 -3.315078,-2.318 -0.478948,0 -1.212403,4.13483 -0.805536,4.54167 0.212428,0.21256 0.793387,0.0485 1.291392,-0.36474 0.687394,-0.57049 1.51901,-0.33452 3.451686,0.97875 1.400111,0.95142 2.445471,1.8172 2.32365,1.92512 -0.121924,0.10791 -3.784805,2.21227 -8.139833,4.67549 -4.354999,2.4632 -8.18466,4.47831 -8.510215,4.47831 -0.660009,0 -5.9270936,-16.39997 -6.6259362,-20.63125 -0.6404201,-3.8776 0.5723943,-2.4928 5.1669662,5.89928 2.067402,3.77609 4.117541,6.98597 4.55436,7.1315 0.556131,0.18531 0.504554,-0.42892 -0.171823,-2.04765 -0.949474,-2.27244 -0.908428,-2.40675 2.474342,-7.88915 1.892616,-3.06732 3.874176,-5.74245 4.403678,-5.94575 0.06879,-0.0273 0.142964,-0.0411 0.221094,-0.045 z m 12.211166,3.68545 c 0.548714,0.002 0.94476,0.69228 1.653315,2.54756 0.627252,1.64274 0.937775,3.31441 0.690053,3.71504 -0.825233,1.33528 -2.220714,0.75256 -4.100897,-1.71248 -1.949346,-2.55575 -1.944904,-2.57003 1.1407,-4.3417 0.23393,-0.13434 0.433923,-0.20929 0.616829,-0.20847 z m 14.654519,3.30943 c 0.118436,-0.0218 0.200763,-0.0218 0.240824,0.005 1.196488,0.73951 0.563382,2.40105 -1.985673,5.21344 -3.027051,3.33977 -5.884125,7.51199 -8.583444,12.53227 -1.326566,2.46712 -2.942129,4.24103 -5.183862,5.69366 -2.271717,1.47195 -3.257343,2.56281 -3.257343,3.60517 0,0.82186 -0.406608,1.83189 -0.904117,2.24478 -0.497479,0.41287 -1.306362,2.42885 -1.798368,4.47973 -0.63333,2.64002 -1.209981,3.71162 -1.971584,3.66856 -1.514113,-0.0861 -10.232456,-2.44468 -10.67614,-2.88836 -0.201826,-0.20194 0.163647,-1.84108 0.811167,-3.6418 l 1.177318,-3.27425 -1.830757,-3.61084 c -1.510213,-2.98023 -1.672195,-3.75529 -0.928055,-4.43043 1.92403,-1.74559 17.302828,-10.99043 18.98497,-11.41264 0.977223,-0.24527 2.177635,-0.84097 2.668683,-1.32379 1.426781,-1.40293 11.459683,-6.54833 13.236383,-6.85972 z"
       id="path818"
       inkscape:connector-curvature="0"
       sodipodi:nodetypes="ccccccssccccccccccccccccsscccccccccssccccscccccccscccccsccccscccccccccccccsccccccccccccc" />
  </g>
</svg>
